<svg width="222" height="52" viewBox="0 0 222 52" fill="none" xmlns="http://www.w3.org/2000/svg">
<rect width="222" height="52" rx="26" fill="#CA4600"/>
<g clip-path="url(#clip0_48_58)">
<path d="M46.3334 30.1V32.6C46.3344 32.8321 46.2868 33.0618 46.1939 33.2744C46.1009 33.4871 45.9645 33.678 45.7935 33.8349C45.6225 33.9918 45.4206 34.1112 45.2007 34.1856C44.9809 34.2599 44.7479 34.2875 44.5168 34.2666C41.9525 33.988 39.4893 33.1118 37.3251 31.7083C35.3116 30.4289 33.6046 28.7218 32.3251 26.7083C30.9168 24.5343 30.0403 22.0591 29.7668 19.4833C29.7459 19.2529 29.7733 19.0206 29.8472 18.8013C29.921 18.5821 30.0397 18.3806 30.1957 18.2097C30.3517 18.0388 30.5416 17.9022 30.7533 17.8087C30.9649 17.7153 31.1937 17.6669 31.4251 17.6666H33.9251C34.3295 17.6627 34.7216 17.8059 35.0282 18.0696C35.3349 18.3333 35.5352 18.6995 35.5918 19.1C35.6973 19.9 35.893 20.6856 36.1751 21.4416C36.2872 21.7399 36.3115 22.0641 36.245 22.3757C36.1786 22.6874 36.0242 22.9734 35.8001 23.2L34.7418 24.2583C35.9281 26.3446 37.6555 28.072 39.7418 29.2583L40.8001 28.2C41.0267 27.9759 41.3127 27.8215 41.6244 27.7551C41.936 27.6886 42.2602 27.7129 42.5584 27.825C43.3145 28.1071 44.1001 28.3028 44.9001 28.4083C45.3049 28.4654 45.6746 28.6693 45.9389 28.9812C46.2032 29.2931 46.3436 29.6913 46.3334 30.1Z" stroke="white" stroke-width="2" stroke-linecap="round" stroke-linejoin="round"/>
</g>
<path d="M63.104 26.16C63.808 26.352 64.3573 26.688 64.752 27.168C65.1467 27.6373 65.344 28.2027 65.344 28.864C65.344 29.5253 65.1307 30.1067 64.704 30.608C64.288 31.0987 63.728 31.4773 63.024 31.744C62.3307 32 61.5733 32.128 60.752 32.128C60.0053 32.128 59.264 32.016 58.528 31.792C57.792 31.568 57.12 31.232 56.512 30.784L57.072 29.6C57.5627 29.984 58.112 30.272 58.72 30.464C59.328 30.656 59.9413 30.752 60.56 30.752C61.456 30.752 62.208 30.5653 62.816 30.192C63.424 29.808 63.728 29.2853 63.728 28.624C63.728 28.0587 63.4987 27.6267 63.04 27.328C62.5813 27.0187 61.936 26.864 61.104 26.864H58.608V25.568H60.992C61.7067 25.568 62.2613 25.424 62.656 25.136C63.0613 24.8373 63.264 24.4267 63.264 23.904C63.264 23.3173 63.0027 22.8533 62.48 22.512C61.9573 22.1707 61.296 22 60.496 22C59.9733 22 59.44 22.0747 58.896 22.224C58.3627 22.3733 57.856 22.5973 57.376 22.896L56.864 21.584C57.4293 21.264 58.0267 21.024 58.656 20.864C59.2853 20.704 59.9147 20.624 60.544 20.624C61.3333 20.624 62.0587 20.7467 62.72 20.992C63.3813 21.2373 63.904 21.5947 64.288 22.064C64.6827 22.5333 64.88 23.0827 64.88 23.712C64.88 24.2773 64.72 24.7733 64.4 25.2C64.0907 25.6267 63.6587 25.9467 63.104 26.16ZM70.7776 23.44C71.951 23.44 72.847 23.728 73.4656 24.304C74.095 24.88 74.4096 25.7387 74.4096 26.88V32H72.9536V30.88C72.6976 31.2747 72.3296 31.5787 71.8496 31.792C71.3803 31.9947 70.8203 32.096 70.1696 32.096C69.2203 32.096 68.4576 31.8667 67.8816 31.408C67.3163 30.9493 67.0336 30.3467 67.0336 29.6C67.0336 28.8533 67.3056 28.256 67.8496 27.808C68.3936 27.3493 69.2576 27.12 70.4416 27.12H72.8736V26.816C72.8736 26.1547 72.6816 25.648 72.2976 25.296C71.9136 24.944 71.3483 24.768 70.6016 24.768C70.1003 24.768 69.6096 24.8533 69.1296 25.024C68.6496 25.184 68.2443 25.4027 67.9136 25.68L67.2736 24.528C67.711 24.176 68.2336 23.9093 68.8416 23.728C69.4496 23.536 70.095 23.44 70.7776 23.44ZM70.4256 30.912C71.0123 30.912 71.519 30.784 71.9456 30.528C72.3723 30.2613 72.6816 29.888 72.8736 29.408V28.224H70.5056C69.2043 28.224 68.5536 28.6613 68.5536 29.536C68.5536 29.9627 68.719 30.2987 69.0496 30.544C69.3803 30.7893 69.839 30.912 70.4256 30.912ZM80.4715 28.416H78.7115V32H77.1755V23.52H78.7115V27.104H80.5035L83.2555 23.52H84.9035L81.6875 27.6L85.1275 32H83.3195L80.4715 28.416ZM89.6058 23.44C90.7791 23.44 91.6751 23.728 92.2938 24.304C92.9231 24.88 93.2378 25.7387 93.2378 26.88V32H91.7818V30.88C91.5258 31.2747 91.1578 31.5787 90.6778 31.792C90.2084 31.9947 89.6484 32.096 88.9978 32.096C88.0484 32.096 87.2858 31.8667 86.7098 31.408C86.1444 30.9493 85.8618 30.3467 85.8618 29.6C85.8618 28.8533 86.1338 28.256 86.6778 27.808C87.2218 27.3493 88.0858 27.12 89.2698 27.12H91.7018V26.816C91.7018 26.1547 91.5098 25.648 91.1258 25.296C90.7418 24.944 90.1764 24.768 89.4298 24.768C88.9284 24.768 88.4378 24.8533 87.9578 25.024C87.4778 25.184 87.0724 25.4027 86.7418 25.68L86.1018 24.528C86.5391 24.176 87.0618 23.9093 87.6698 23.728C88.2778 23.536 88.9231 23.44 89.6058 23.44ZM89.2538 30.912C89.8404 30.912 90.3471 30.784 90.7738 30.528C91.2004 30.2613 91.5098 29.888 91.7018 29.408V28.224H89.3338C88.0324 28.224 87.3818 28.6613 87.3818 29.536C87.3818 29.9627 87.5471 30.2987 87.8778 30.544C88.2084 30.7893 88.6671 30.912 89.2538 30.912ZM100.455 27.584C101.02 27.7333 101.458 27.9733 101.767 28.304C102.076 28.6347 102.231 29.0453 102.231 29.536C102.231 30.0373 102.06 30.4853 101.719 30.88C101.378 31.264 100.903 31.568 100.295 31.792C99.6977 32.0053 99.0257 32.112 98.279 32.112C97.6497 32.112 97.031 32.032 96.423 31.872C95.8257 31.7013 95.2923 31.4613 94.823 31.152L95.287 29.984C95.6923 30.24 96.1563 30.4427 96.679 30.592C97.2017 30.7307 97.7297 30.8 98.263 30.8C98.9883 30.8 99.5643 30.6773 99.991 30.432C100.428 30.176 100.647 29.8347 100.647 29.408C100.647 29.0133 100.471 28.7093 100.119 28.496C99.7777 28.2827 99.2923 28.176 98.663 28.176H97.111V27.072H98.551C99.127 27.072 99.5803 26.9707 99.911 26.768C100.242 26.5653 100.407 26.288 100.407 25.936C100.407 25.552 100.21 25.2533 99.815 25.04C99.431 24.8267 98.9083 24.72 98.247 24.72C97.4043 24.72 96.5137 24.9387 95.575 25.376L95.159 24.192C96.1937 23.6693 97.2763 23.408 98.407 23.408C99.0897 23.408 99.703 23.504 100.247 23.696C100.791 23.888 101.218 24.16 101.527 24.512C101.836 24.864 101.991 25.264 101.991 25.712C101.991 26.128 101.852 26.5013 101.575 26.832C101.298 27.1627 100.924 27.4133 100.455 27.584ZM107.59 23.44C108.763 23.44 109.659 23.728 110.278 24.304C110.907 24.88 111.222 25.7387 111.222 26.88V32H109.766V30.88C109.51 31.2747 109.142 31.5787 108.662 31.792C108.193 31.9947 107.633 32.096 106.982 32.096C106.033 32.096 105.27 31.8667 104.694 31.408C104.129 30.9493 103.846 30.3467 103.846 29.6C103.846 28.8533 104.118 28.256 104.662 27.808C105.206 27.3493 106.07 27.12 107.254 27.12H109.686V26.816C109.686 26.1547 109.494 25.648 109.11 25.296C108.726 24.944 108.161 24.768 107.414 24.768C106.913 24.768 106.422 24.8533 105.942 25.024C105.462 25.184 105.057 25.4027 104.726 25.68L104.086 24.528C104.523 24.176 105.046 23.9093 105.654 23.728C106.262 23.536 106.907 23.44 107.59 23.44ZM107.238 30.912C107.825 30.912 108.331 30.784 108.758 30.528C109.185 30.2613 109.494 29.888 109.686 29.408V28.224H107.318C106.017 28.224 105.366 28.6613 105.366 29.536C105.366 29.9627 105.531 30.2987 105.862 30.544C106.193 30.7893 106.651 30.912 107.238 30.912ZM120.308 24.864H117.204V32H115.668V24.864H112.564V23.52H120.308V24.864ZM125.799 26.4C126.876 26.4107 127.697 26.656 128.263 27.136C128.828 27.616 129.111 28.2933 129.111 29.168C129.111 30.0853 128.801 30.7947 128.183 31.296C127.575 31.7867 126.7 32.0267 125.559 32.016L121.879 32V23.52H123.415V26.384L125.799 26.4ZM125.431 30.848C126.124 30.8587 126.647 30.72 126.999 30.432C127.361 30.144 127.543 29.7173 127.543 29.152C127.543 28.5973 127.367 28.192 127.015 27.936C126.673 27.68 126.145 27.5467 125.431 27.536L123.415 27.504V30.832L125.431 30.848ZM139.971 27.584C140.536 27.7333 140.973 27.9733 141.283 28.304C141.592 28.6347 141.747 29.0453 141.747 29.536C141.747 30.0373 141.576 30.4853 141.235 30.88C140.893 31.264 140.419 31.568 139.811 31.792C139.213 32.0053 138.541 32.112 137.795 32.112C137.165 32.112 136.547 32.032 135.939 31.872C135.341 31.7013 134.808 31.4613 134.339 31.152L134.803 29.984C135.208 30.24 135.672 30.4427 136.195 30.592C136.717 30.7307 137.245 30.8 137.779 30.8C138.504 30.8 139.08 30.6773 139.507 30.432C139.944 30.176 140.163 29.8347 140.163 29.408C140.163 29.0133 139.987 28.7093 139.635 28.496C139.293 28.2827 138.808 28.176 138.179 28.176H136.627V27.072H138.067C138.643 27.072 139.096 26.9707 139.427 26.768C139.757 26.5653 139.923 26.288 139.923 25.936C139.923 25.552 139.725 25.2533 139.331 25.04C138.947 24.8267 138.424 24.72 137.763 24.72C136.92 24.72 136.029 24.9387 135.091 25.376L134.675 24.192C135.709 23.6693 136.792 23.408 137.923 23.408C138.605 23.408 139.219 23.504 139.763 23.696C140.307 23.888 140.733 24.16 141.043 24.512C141.352 24.864 141.507 25.264 141.507 25.712C141.507 26.128 141.368 26.5013 141.091 26.832C140.813 27.1627 140.44 27.4133 139.971 27.584ZM149.858 27.6C150.956 27.8773 151.506 28.5653 151.506 29.664C151.506 30.4107 151.223 30.9867 150.658 31.392C150.103 31.7973 149.271 32 148.162 32H144.082V23.52H148.018C149.02 23.52 149.804 23.712 150.37 24.096C150.935 24.4693 151.218 25.0027 151.218 25.696C151.218 26.144 151.095 26.5333 150.85 26.864C150.615 27.184 150.284 27.4293 149.858 27.6ZM145.586 27.168H147.89C148.476 27.168 148.919 27.0613 149.218 26.848C149.527 26.6347 149.682 26.3253 149.682 25.92C149.682 25.1093 149.084 24.704 147.89 24.704H145.586V27.168ZM148.05 30.816C148.69 30.816 149.17 30.7147 149.49 30.512C149.81 30.3093 149.97 29.9947 149.97 29.568C149.97 29.1307 149.82 28.8053 149.522 28.592C149.234 28.3787 148.775 28.272 148.146 28.272H145.586V30.816H148.05ZM157.542 32.096C156.699 32.096 155.942 31.9093 155.27 31.536C154.598 31.1627 154.07 30.6507 153.686 30C153.313 29.3387 153.126 28.592 153.126 27.76C153.126 26.928 153.313 26.1867 153.686 25.536C154.07 24.8747 154.598 24.3627 155.27 24C155.942 23.6267 156.699 23.44 157.542 23.44C158.385 23.44 159.137 23.6267 159.798 24C160.47 24.3627 160.993 24.8747 161.366 25.536C161.75 26.1867 161.942 26.928 161.942 27.76C161.942 28.592 161.75 29.3387 161.366 30C160.993 30.6507 160.47 31.1627 159.798 31.536C159.137 31.9093 158.385 32.096 157.542 32.096ZM157.542 30.752C158.086 30.752 158.571 30.6293 158.998 30.384C159.435 30.128 159.777 29.776 160.022 29.328C160.267 28.8693 160.39 28.3467 160.39 27.76C160.39 27.1733 160.267 26.656 160.022 26.208C159.777 25.7493 159.435 25.3973 158.998 25.152C158.571 24.9067 158.086 24.784 157.542 24.784C156.998 24.784 156.507 24.9067 156.07 25.152C155.643 25.3973 155.302 25.7493 155.046 26.208C154.801 26.656 154.678 27.1733 154.678 27.76C154.678 28.3467 154.801 28.8693 155.046 29.328C155.302 29.776 155.643 30.128 156.07 30.384C156.507 30.6293 156.998 30.752 157.542 30.752ZM164.16 23.52H165.696V27.12H170.528V23.52H172.064V32H170.528V28.448H165.696V32H164.16V23.52ZM178.683 32.096C177.84 32.096 177.083 31.9093 176.411 31.536C175.739 31.1627 175.211 30.6507 174.827 30C174.453 29.3387 174.267 28.592 174.267 27.76C174.267 26.928 174.453 26.1867 174.827 25.536C175.211 24.8747 175.739 24.3627 176.411 24C177.083 23.6267 177.84 23.44 178.683 23.44C179.525 23.44 180.277 23.6267 180.939 24C181.611 24.3627 182.133 24.8747 182.507 25.536C182.891 26.1867 183.083 26.928 183.083 27.76C183.083 28.592 182.891 29.3387 182.507 30C182.133 30.6507 181.611 31.1627 180.939 31.536C180.277 31.9093 179.525 32.096 178.683 32.096ZM178.683 30.752C179.227 30.752 179.712 30.6293 180.139 30.384C180.576 30.128 180.917 29.776 181.163 29.328C181.408 28.8693 181.531 28.3467 181.531 27.76C181.531 27.1733 181.408 26.656 181.163 26.208C180.917 25.7493 180.576 25.3973 180.139 25.152C179.712 24.9067 179.227 24.784 178.683 24.784C178.139 24.784 177.648 24.9067 177.211 25.152C176.784 25.3973 176.443 25.7493 176.187 26.208C175.941 26.656 175.819 27.1733 175.819 27.76C175.819 28.3467 175.941 28.8693 176.187 29.328C176.443 29.776 176.784 30.128 177.211 30.384C177.648 30.6293 178.139 30.752 178.683 30.752ZM188.597 28.416H186.837V32H185.301V23.52H186.837V27.104H188.629L191.381 23.52H193.029L189.813 27.6L193.253 32H191.445L188.597 28.416Z" fill="white"/>
<defs>
<clipPath id="clip0_48_58">
<rect width="20" height="20" fill="white" transform="translate(28 16)"/>
</clipPath>
</defs>
</svg>
