<svg width="222" height="52" viewBox="0 0 222 52" fill="none" xmlns="http://www.w3.org/2000/svg">
<g clip-path="url(#clip0_45_1090)">
<path d="M46.3334 30.1V32.6C46.3344 32.8321 46.2868 33.0618 46.1939 33.2745C46.1009 33.4871 45.9645 33.678 45.7935 33.8349C45.6225 33.9918 45.4206 34.1112 45.2007 34.1856C44.9809 34.2599 44.7479 34.2876 44.5168 34.2667C41.9525 33.988 39.4893 33.1118 37.3251 31.7083C35.3116 30.4289 33.6046 28.7218 32.3251 26.7083C30.9168 24.5343 30.0403 22.0592 29.7668 19.4833C29.7459 19.2529 29.7733 19.0206 29.8472 18.8013C29.921 18.5821 30.0397 18.3806 30.1957 18.2097C30.3517 18.0388 30.5416 17.9023 30.7533 17.8088C30.9649 17.7153 31.1937 17.6669 31.4251 17.6667H33.9251C34.3295 17.6627 34.7216 17.8059 35.0282 18.0696C35.3349 18.3333 35.5352 18.6995 35.5918 19.1C35.6973 19.9 35.893 20.6856 36.1751 21.4417C36.2872 21.7399 36.3115 22.0641 36.245 22.3757C36.1786 22.6874 36.0242 22.9734 35.8001 23.2L34.7418 24.2583C35.9281 26.3446 37.6555 28.072 39.7418 29.2583L40.8001 28.2C41.0267 27.9759 41.3127 27.8215 41.6244 27.7551C41.936 27.6886 42.2602 27.7129 42.5584 27.825C43.3145 28.1071 44.1001 28.3028 44.9001 28.4083C45.3049 28.4654 45.6746 28.6693 45.9389 28.9812C46.2032 29.2931 46.3436 29.6913 46.3334 30.1Z" stroke="#FF5900" stroke-width="2" stroke-linecap="round" stroke-linejoin="round"/>
</g>
<path d="M63.4166 26.16C64.1206 26.352 64.67 26.688 65.0646 27.168C65.4593 27.6373 65.6566 28.2027 65.6566 28.864C65.6566 29.5253 65.4433 30.1067 65.0166 30.608C64.6006 31.0987 64.0406 31.4773 63.3366 31.744C62.6433 32 61.886 32.128 61.0646 32.128C60.318 32.128 59.5766 32.016 58.8406 31.792C58.1046 31.568 57.4326 31.232 56.8246 30.784L57.3846 29.6C57.8753 29.984 58.4246 30.272 59.0326 30.464C59.6406 30.656 60.254 30.752 60.8726 30.752C61.7686 30.752 62.5206 30.5653 63.1286 30.192C63.7366 29.808 64.0406 29.2853 64.0406 28.624C64.0406 28.0587 63.8113 27.6267 63.3526 27.328C62.894 27.0187 62.2486 26.864 61.4166 26.864H58.9206V25.568H61.3046C62.0193 25.568 62.574 25.424 62.9686 25.136C63.374 24.8373 63.5766 24.4267 63.5766 23.904C63.5766 23.3173 63.3153 22.8533 62.7926 22.512C62.27 22.1707 61.6086 22 60.8086 22C60.286 22 59.7526 22.0747 59.2086 22.224C58.6753 22.3733 58.1686 22.5973 57.6886 22.896L57.1766 21.584C57.742 21.264 58.3393 21.024 58.9686 20.864C59.598 20.704 60.2273 20.624 60.8566 20.624C61.646 20.624 62.3713 20.7467 63.0326 20.992C63.694 21.2373 64.2166 21.5947 64.6006 22.064C64.9953 22.5333 65.1926 23.0827 65.1926 23.712C65.1926 24.2773 65.0326 24.7733 64.7126 25.2C64.4033 25.6267 63.9713 25.9467 63.4166 26.16ZM71.0902 23.44C72.2636 23.44 73.1596 23.728 73.7782 24.304C74.4076 24.88 74.7222 25.7387 74.7222 26.88V32H73.2662V30.88C73.0102 31.2747 72.6422 31.5787 72.1622 31.792C71.6929 31.9947 71.1329 32.096 70.4822 32.096C69.5329 32.096 68.7702 31.8667 68.1942 31.408C67.6289 30.9493 67.3462 30.3467 67.3462 29.6C67.3462 28.8533 67.6182 28.256 68.1622 27.808C68.7062 27.3493 69.5702 27.12 70.7542 27.12H73.1862V26.816C73.1862 26.1547 72.9942 25.648 72.6102 25.296C72.2262 24.944 71.6609 24.768 70.9142 24.768C70.4129 24.768 69.9222 24.8533 69.4422 25.024C68.9622 25.184 68.5569 25.4027 68.2262 25.68L67.5862 24.528C68.0236 24.176 68.5462 23.9093 69.1542 23.728C69.7622 23.536 70.4076 23.44 71.0902 23.44ZM70.7382 30.912C71.3249 30.912 71.8316 30.784 72.2582 30.528C72.6849 30.2613 72.9942 29.888 73.1862 29.408V28.224H70.8182C69.5169 28.224 68.8662 28.6613 68.8662 29.536C68.8662 29.9627 69.0316 30.2987 69.3622 30.544C69.6929 30.7893 70.1516 30.912 70.7382 30.912ZM80.7841 28.416H79.0241V32H77.4881V23.52H79.0241V27.104H80.8161L83.5681 23.52H85.2161L82.0001 27.6L85.4401 32H83.6321L80.7841 28.416ZM89.9184 23.44C91.0917 23.44 91.9877 23.728 92.6064 24.304C93.2357 24.88 93.5504 25.7387 93.5504 26.88V32H92.0944V30.88C91.8384 31.2747 91.4704 31.5787 90.9904 31.792C90.521 31.9947 89.961 32.096 89.3104 32.096C88.361 32.096 87.5984 31.8667 87.0224 31.408C86.457 30.9493 86.1744 30.3467 86.1744 29.6C86.1744 28.8533 86.4464 28.256 86.9904 27.808C87.5344 27.3493 88.3984 27.12 89.5824 27.12H92.0144V26.816C92.0144 26.1547 91.8224 25.648 91.4384 25.296C91.0544 24.944 90.489 24.768 89.7424 24.768C89.241 24.768 88.7504 24.8533 88.2704 25.024C87.7904 25.184 87.385 25.4027 87.0544 25.68L86.4144 24.528C86.8517 24.176 87.3744 23.9093 87.9824 23.728C88.5904 23.536 89.2357 23.44 89.9184 23.44ZM89.5664 30.912C90.153 30.912 90.6597 30.784 91.0864 30.528C91.513 30.2613 91.8224 29.888 92.0144 29.408V28.224H89.6464C88.345 28.224 87.6944 28.6613 87.6944 29.536C87.6944 29.9627 87.8597 30.2987 88.1904 30.544C88.521 30.7893 88.9797 30.912 89.5664 30.912ZM100.768 27.584C101.333 27.7333 101.77 27.9733 102.08 28.304C102.389 28.6347 102.544 29.0453 102.544 29.536C102.544 30.0373 102.373 30.4853 102.032 30.88C101.69 31.264 101.216 31.568 100.608 31.792C100.01 32.0053 99.3383 32.112 98.5916 32.112C97.9623 32.112 97.3436 32.032 96.7356 31.872C96.1383 31.7013 95.605 31.4613 95.1356 31.152L95.5996 29.984C96.005 30.24 96.469 30.4427 96.9916 30.592C97.5143 30.7307 98.0423 30.8 98.5756 30.8C99.301 30.8 99.877 30.6773 100.304 30.432C100.741 30.176 100.96 29.8347 100.96 29.408C100.96 29.0133 100.784 28.7093 100.432 28.496C100.09 28.2827 99.605 28.176 98.9756 28.176H97.4236V27.072H98.8636C99.4396 27.072 99.893 26.9707 100.224 26.768C100.554 26.5653 100.72 26.288 100.72 25.936C100.72 25.552 100.522 25.2533 100.128 25.04C99.7436 24.8267 99.221 24.72 98.5596 24.72C97.717 24.72 96.8263 24.9387 95.8876 25.376L95.4716 24.192C96.5063 23.6693 97.589 23.408 98.7196 23.408C99.4023 23.408 100.016 23.504 100.56 23.696C101.104 23.888 101.53 24.16 101.84 24.512C102.149 24.864 102.304 25.264 102.304 25.712C102.304 26.128 102.165 26.5013 101.888 26.832C101.61 27.1627 101.237 27.4133 100.768 27.584ZM107.903 23.44C109.076 23.44 109.972 23.728 110.591 24.304C111.22 24.88 111.535 25.7387 111.535 26.88V32H110.079V30.88C109.823 31.2747 109.455 31.5787 108.975 31.792C108.505 31.9947 107.945 32.096 107.295 32.096C106.345 32.096 105.583 31.8667 105.007 31.408C104.441 30.9493 104.159 30.3467 104.159 29.6C104.159 28.8533 104.431 28.256 104.975 27.808C105.519 27.3493 106.383 27.12 107.567 27.12H109.999V26.816C109.999 26.1547 109.807 25.648 109.423 25.296C109.039 24.944 108.473 24.768 107.727 24.768C107.225 24.768 106.735 24.8533 106.255 25.024C105.775 25.184 105.369 25.4027 105.039 25.68L104.399 24.528C104.836 24.176 105.359 23.9093 105.967 23.728C106.575 23.536 107.22 23.44 107.903 23.44ZM107.551 30.912C108.137 30.912 108.644 30.784 109.071 30.528C109.497 30.2613 109.807 29.888 109.999 29.408V28.224H107.631C106.329 28.224 105.679 28.6613 105.679 29.536C105.679 29.9627 105.844 30.2987 106.175 30.544C106.505 30.7893 106.964 30.912 107.551 30.912ZM120.621 24.864H117.517V32H115.981V24.864H112.877V23.52H120.621V24.864ZM126.111 26.4C127.189 26.4107 128.01 26.656 128.575 27.136C129.141 27.616 129.423 28.2933 129.423 29.168C129.423 30.0853 129.114 30.7947 128.495 31.296C127.887 31.7867 127.013 32.0267 125.871 32.016L122.191 32V23.52H123.727V26.384L126.111 26.4ZM125.743 30.848C126.437 30.8587 126.959 30.72 127.311 30.432C127.674 30.144 127.855 29.7173 127.855 29.152C127.855 28.5973 127.679 28.192 127.327 27.936C126.986 27.68 126.458 27.5467 125.743 27.536L123.727 27.504V30.832L125.743 30.848ZM140.283 27.584C140.849 27.7333 141.286 27.9733 141.595 28.304C141.905 28.6347 142.059 29.0453 142.059 29.536C142.059 30.0373 141.889 30.4853 141.547 30.88C141.206 31.264 140.731 31.568 140.123 31.792C139.526 32.0053 138.854 32.112 138.107 32.112C137.478 32.112 136.859 32.032 136.251 31.872C135.654 31.7013 135.121 31.4613 134.651 31.152L135.115 29.984C135.521 30.24 135.985 30.4427 136.507 30.592C137.03 30.7307 137.558 30.8 138.091 30.8C138.817 30.8 139.393 30.6773 139.819 30.432C140.257 30.176 140.475 29.8347 140.475 29.408C140.475 29.0133 140.299 28.7093 139.947 28.496C139.606 28.2827 139.121 28.176 138.491 28.176H136.939V27.072H138.379C138.955 27.072 139.409 26.9707 139.739 26.768C140.07 26.5653 140.235 26.288 140.235 25.936C140.235 25.552 140.038 25.2533 139.643 25.04C139.259 24.8267 138.737 24.72 138.075 24.72C137.233 24.72 136.342 24.9387 135.403 25.376L134.987 24.192C136.022 23.6693 137.105 23.408 138.235 23.408C138.918 23.408 139.531 23.504 140.075 23.696C140.619 23.888 141.046 24.16 141.355 24.512C141.665 24.864 141.819 25.264 141.819 25.712C141.819 26.128 141.681 26.5013 141.403 26.832C141.126 27.1627 140.753 27.4133 140.283 27.584ZM150.17 27.6C151.269 27.8773 151.818 28.5653 151.818 29.664C151.818 30.4107 151.536 30.9867 150.97 31.392C150.416 31.7973 149.584 32 148.474 32H144.394V23.52H148.33C149.333 23.52 150.117 23.712 150.682 24.096C151.248 24.4693 151.53 25.0027 151.53 25.696C151.53 26.144 151.408 26.5333 151.162 26.864C150.928 27.184 150.597 27.4293 150.17 27.6ZM145.898 27.168H148.202C148.789 27.168 149.232 27.0613 149.53 26.848C149.84 26.6347 149.994 26.3253 149.994 25.92C149.994 25.1093 149.397 24.704 148.202 24.704H145.898V27.168ZM148.362 30.816C149.002 30.816 149.482 30.7147 149.802 30.512C150.122 30.3093 150.282 29.9947 150.282 29.568C150.282 29.1307 150.133 28.8053 149.834 28.592C149.546 28.3787 149.088 28.272 148.458 28.272H145.898V30.816H148.362ZM157.854 32.096C157.012 32.096 156.254 31.9093 155.582 31.536C154.91 31.1627 154.382 30.6507 153.998 30C153.625 29.3387 153.438 28.592 153.438 27.76C153.438 26.928 153.625 26.1867 153.998 25.536C154.382 24.8747 154.91 24.3627 155.582 24C156.254 23.6267 157.012 23.44 157.854 23.44C158.697 23.44 159.449 23.6267 160.11 24C160.782 24.3627 161.305 24.8747 161.678 25.536C162.062 26.1867 162.254 26.928 162.254 27.76C162.254 28.592 162.062 29.3387 161.678 30C161.305 30.6507 160.782 31.1627 160.11 31.536C159.449 31.9093 158.697 32.096 157.854 32.096ZM157.854 30.752C158.398 30.752 158.884 30.6293 159.31 30.384C159.748 30.128 160.089 29.776 160.334 29.328C160.58 28.8693 160.702 28.3467 160.702 27.76C160.702 27.1733 160.58 26.656 160.334 26.208C160.089 25.7493 159.748 25.3973 159.31 25.152C158.884 24.9067 158.398 24.784 157.854 24.784C157.31 24.784 156.82 24.9067 156.382 25.152C155.956 25.3973 155.614 25.7493 155.358 26.208C155.113 26.656 154.99 27.1733 154.99 27.76C154.99 28.3467 155.113 28.8693 155.358 29.328C155.614 29.776 155.956 30.128 156.382 30.384C156.82 30.6293 157.31 30.752 157.854 30.752ZM164.472 23.52H166.008V27.12H170.84V23.52H172.376V32H170.84V28.448H166.008V32H164.472V23.52ZM178.995 32.096C178.152 32.096 177.395 31.9093 176.723 31.536C176.051 31.1627 175.523 30.6507 175.139 30C174.766 29.3387 174.579 28.592 174.579 27.76C174.579 26.928 174.766 26.1867 175.139 25.536C175.523 24.8747 176.051 24.3627 176.723 24C177.395 23.6267 178.152 23.44 178.995 23.44C179.838 23.44 180.59 23.6267 181.251 24C181.923 24.3627 182.446 24.8747 182.819 25.536C183.203 26.1867 183.395 26.928 183.395 27.76C183.395 28.592 183.203 29.3387 182.819 30C182.446 30.6507 181.923 31.1627 181.251 31.536C180.59 31.9093 179.838 32.096 178.995 32.096ZM178.995 30.752C179.539 30.752 180.024 30.6293 180.451 30.384C180.888 30.128 181.23 29.776 181.475 29.328C181.72 28.8693 181.843 28.3467 181.843 27.76C181.843 27.1733 181.72 26.656 181.475 26.208C181.23 25.7493 180.888 25.3973 180.451 25.152C180.024 24.9067 179.539 24.784 178.995 24.784C178.451 24.784 177.96 24.9067 177.523 25.152C177.096 25.3973 176.755 25.7493 176.499 26.208C176.254 26.656 176.131 27.1733 176.131 27.76C176.131 28.3467 176.254 28.8693 176.499 29.328C176.755 29.776 177.096 30.128 177.523 30.384C177.96 30.6293 178.451 30.752 178.995 30.752ZM188.909 28.416H187.149V32H185.613V23.52H187.149V27.104H188.941L191.693 23.52H193.341L190.125 27.6L193.565 32H191.757L188.909 28.416Z" fill="#FF5900"/>
<rect x="0.500122" y="0.5" width="221" height="51" rx="25.5" stroke="#FF5900"/>
<defs>
<clipPath id="clip0_45_1090">
<rect width="20" height="20" fill="white" transform="translate(28.0001 16)"/>
</clipPath>
</defs>
</svg>
